<?xml version="1.0" standalone="no"?>
<!DOCTYPE svg PUBLIC "-//W3C//DTD SVG 20010904//EN"
 "http://www.w3.org/TR/2001/REC-SVG-20010904/DTD/svg10.dtd">
<svg version="1.0" xmlns="http://www.w3.org/2000/svg"
 width="1024.000000pt" height="1024.000000pt" viewBox="0 0 1024.000000 1024.000000"
 preserveAspectRatio="xMidYMid meet">

<g transform="translate(0.000000,1024.000000) scale(0.100000,-0.100000)"
fill="#000000" stroke="none">
<path d="M5021 8453 c-47 -27 -59 -38 -49 -45 10 -7 9 -8 -4 -4 -17 5 -123
-52 -114 -61 5 -5 48 19 58 32 5 6 8 5 8 -3 0 -7 -8 -16 -17 -19 -10 -4 -20
-10 -23 -13 -3 -4 -16 -11 -29 -15 -18 -5 -22 -4 -16 5 5 7 4 11 -1 8 -5 -3
-46 -27 -92 -53 -45 -26 -80 -51 -77 -56 4 -5 0 -7 -7 -4 -7 3 -31 -6 -53 -20
-22 -13 -37 -25 -33 -25 4 0 22 9 40 19 33 21 58 19 36 -2 -7 -7 -26 -17 -43
-23 -16 -6 -39 -15 -50 -20 -18 -7 -19 -6 -5 11 15 18 14 18 -14 0 -26 -17
-27 -20 -10 -26 14 -6 11 -8 -12 -6 -20 1 -57 -14 -107 -43 -42 -24 -75 -45
-72 -48 2 -2 19 5 38 17 19 11 42 21 51 21 10 0 15 4 12 9 -7 10 24 25 33 15
8 -8 -29 -34 -49 -34 -8 0 -26 -10 -40 -23 -29 -25 -80 -50 -88 -42 -3 3 3 12
14 21 24 19 -54 -24 -87 -49 -13 -10 -19 -15 -13 -13 7 3 14 0 17 -8 9 -22 -5
-28 -23 -11 -15 14 -25 10 -100 -35 -46 -28 -86 -53 -89 -56 -8 -8 51 18 67
29 8 7 12 5 12 -6 0 -14 -26 -32 -42 -29 -5 1 -8 -3 -8 -8 0 -6 -6 -10 -14
-10 -7 0 -25 -11 -39 -24 -15 -14 -37 -28 -49 -31 -13 -4 -30 -14 -40 -22 -11
-10 -18 -11 -23 -4 -9 16 -27 13 -54 -8 -23 -18 -23 -18 -1 -16 12 1 25 8 30
15 5 8 12 11 17 6 4 -4 0 -12 -9 -17 -9 -5 -24 -17 -34 -26 -9 -9 -23 -17 -33
-18 -26 -3 -71 -27 -66 -36 3 -4 -4 -5 -15 -2 -17 5 -12 11 32 39 29 18 50 34
46 34 -4 0 -30 -14 -57 -30 -38 -24 -48 -35 -44 -50 3 -12 0 -20 -6 -20 -7 0
-10 -4 -7 -8 6 -11 -40 -46 -73 -57 -18 -5 -22 -4 -15 6 6 12 5 11 -9 0 -14
-11 -15 -16 -5 -29 10 -13 10 -14 1 -8 -8 4 -13 2 -13 -7 0 -7 -7 -14 -15 -14
-24 0 -95 -35 -95 -48 0 -6 -18 -29 -40 -51 -41 -41 -49 -59 -27 -68 8 -3 7
-8 -5 -16 -19 -12 -25 -50 -8 -50 21 0 9 -18 -20 -30 -35 -14 -38 -30 -10 -50
11 -8 20 -21 20 -30 0 -19 49 -49 70 -43 9 3 7 -2 -5 -12 -23 -18 -50 -16 -50
5 0 18 -21 33 -34 26 -5 -3 -14 1 -21 9 -7 8 -19 15 -26 15 -8 0 -14 5 -14 11
0 5 -5 7 -12 3 -7 -5 -9 -2 -6 7 4 9 -2 14 -18 15 -14 1 -39 9 -57 17 -35 16
-158 67 -164 67 -1 0 -4 -498 -6 -1107 -2 -610 -6 -1119 -8 -1132 -4 -21 10
-33 118 -100 67 -42 173 -105 235 -141 61 -36 175 -102 252 -147 78 -46 227
-131 331 -189 105 -59 233 -132 285 -162 52 -30 124 -71 160 -92 36 -20 113
-64 171 -97 58 -34 152 -84 209 -113 57 -28 119 -62 139 -74 20 -13 64 -37 98
-56 l63 -33 107 54 c105 52 623 340 773 431 41 24 118 69 170 98 52 29 111 63
130 75 19 12 60 36 90 52 67 36 333 190 490 283 63 38 171 100 240 137 l125
69 2 1024 c2 564 0 1068 -5 1120 l-7 94 -30 6 c-32 7 -123 51 -165 80 -48 32
-57 31 -85 -11 -15 -21 -42 -48 -60 -59 -36 -22 -106 -27 -151 -10 -38 15 -59
5 -128 -59 -34 -31 -77 -68 -95 -82 l-35 -26 50 -34 c27 -18 85 -54 129 -80
l80 -46 3 -789 2 -789 -57 -27 c-32 -14 -77 -38 -100 -53 l-43 -26 -2 628 c-1
345 -2 645 -2 666 -1 33 -3 37 -26 36 -17 -1 -19 -3 -7 -6 20 -5 22 -22 3 -29
-11 -4 -15 -63 -20 -302 -3 -163 -9 -358 -12 -433 l-6 -135 -36 -1 c-20 -1
-41 -8 -48 -17 -6 -9 -19 -16 -28 -16 -9 0 -16 -4 -16 -10 0 -5 -11 -10 -25
-10 -19 0 -30 -10 -46 -42 -12 -24 -31 -56 -43 -73 l-21 -30 -5 30 c-3 16 -9
28 -15 27 -6 -1 -11 -95 -13 -252 l-2 -250 -34 -14 c-19 -8 -71 -38 -116 -66
-44 -29 -84 -49 -88 -45 -4 3 -8 285 -10 626 -1 340 -6 619 -11 619 -4 0 -19
-24 -33 -52 -26 -53 -26 -55 -33 -384 -3 -183 -8 -340 -9 -349 -4 -26 -56 -30
-56 -4 0 12 -7 19 -20 19 -13 0 -20 -7 -20 -20 0 -16 -7 -20 -34 -20 -44 0
-66 -9 -66 -26 0 -8 -6 -14 -13 -14 -8 0 -18 -17 -23 -37 -7 -28 -14 -38 -29
-38 -20 0 -20 -7 -20 -274 l0 -274 -55 -30 c-30 -16 -83 -49 -118 -74 l-62
-44 -10 26 c-6 15 -10 250 -11 590 l-2 565 -36 -1 c-30 -2 -32 -3 -8 -6 31 -5
36 -22 8 -30 -27 -7 -30 -46 -38 -513 -4 -228 -10 -397 -13 -375 -4 32 -10 41
-27 43 -13 2 -23 10 -23 18 0 8 -9 14 -20 14 -13 0 -20 -7 -20 -19 0 -10 -7
-24 -15 -31 -8 -7 -15 -19 -15 -27 0 -8 -4 -12 -8 -9 -5 3 -8 -5 -8 -17 1 -12
-5 -22 -13 -22 -19 0 -39 -59 -40 -116 -1 -44 -2 -46 -31 -46 -35 0 -37 5 -49
172 l-8 110 -2 -162 c0 -90 -3 -163 -5 -163 -15 0 -228 135 -236 150 -6 11
-10 219 -10 539 -1 407 -3 520 -13 514 -7 -4 -57 -11 -112 -14 l-100 -6 87 -1
88 -2 -11 -27 c-6 -17 -11 -200 -12 -485 -2 -363 -5 -458 -15 -458 -18 0 -116
53 -331 178 -157 92 -186 112 -193 137 -5 17 -9 92 -9 168 0 75 -2 137 -5 137
-3 0 -11 -6 -18 -13 -31 -31 -40 -65 -41 -152 0 -89 0 -90 -25 -93 -32 -4
-250 124 -250 147 0 12 -2 13 -8 3 -6 -9 -24 -2 -70 27 -89 58 -99 70 -94 117
3 37 6 40 28 36 18 -3 40 9 92 51 84 69 315 305 535 547 185 202 324 339 346
340 8 0 22 -6 30 -14 9 -7 54 -36 101 -63 47 -28 162 -100 257 -162 95 -61
182 -111 194 -111 14 0 45 25 88 71 36 39 218 223 405 408 317 315 706 718
787 816 19 23 69 80 111 125 l76 82 56 -46 c65 -53 156 -101 208 -111 63 -12
64 -3 77 360 6 176 14 377 17 448 l7 127 -49 -1 c-27 -1 -39 -4 -26 -6 28 -5
26 -14 -26 -91 -51 -75 -61 -134 -66 -399 -4 -205 -12 -253 -38 -253 -6 0 -35
18 -64 40 -51 40 -70 70 -54 87 5 4 10 28 12 53 2 36 0 44 -12 42 -11 -2 -11
1 3 11 18 15 22 33 8 41 -5 3 -27 -24 -49 -60 -21 -36 -75 -102 -118 -147 -44
-45 -104 -111 -134 -147 -30 -36 -85 -96 -122 -135 -36 -38 -65 -71 -64 -72 1
-2 14 -4 28 -5 21 -2 24 -5 15 -19 -13 -20 -66 -53 -74 -45 -3 3 2 8 11 12 16
6 23 44 8 44 -13 0 -49 -43 -57 -67 -3 -13 -12 -23 -19 -23 -20 0 -49 -38 -42
-55 3 -9 10 -13 16 -10 22 14 -3 -21 -28 -39 -15 -11 -21 -13 -14 -6 15 17 16
30 1 30 -16 0 -219 -202 -219 -217 0 -7 -5 -13 -10 -13 -6 0 -39 -30 -73 -67
-98 -105 -107 -114 -202 -198 -49 -44 -104 -93 -121 -110 -17 -16 -46 -44 -65
-60 -19 -17 -38 -37 -44 -46 -47 -76 -91 -123 -106 -114 -5 4 -9 1 -9 -4 0 -6
5 -11 11 -11 14 0 88 58 113 89 11 13 24 27 30 32 6 5 29 25 50 44 22 19 43
35 48 35 4 0 17 10 29 23 12 12 18 15 13 6 -9 -16 -149 -144 -281 -256 -34
-29 -67 -53 -74 -53 -19 0 -80 50 -74 61 4 5 19 9 34 9 15 0 31 3 34 6 11 12
-57 58 -212 145 -83 46 -173 97 -201 112 -28 16 -53 27 -56 24 -2 -2 16 -15
41 -28 25 -13 48 -32 51 -42 3 -9 9 -15 14 -12 5 3 14 -5 21 -17 18 -33 37
-50 44 -39 7 13 34 3 60 -22 42 -41 -53 -10 -153 50 -166 99 -197 123 -194
147 2 20 2 20 -9 3 -6 -11 -12 -26 -14 -35 -1 -10 -7 -16 -13 -15 -10 2 -217
-179 -224 -196 -3 -7 -194 -216 -244 -265 -33 -34 -66 -86 -54 -86 30 0 89 51
90 76 0 7 12 15 26 18 18 5 24 12 20 22 -4 10 1 18 14 21 11 3 20 12 20 20 0
8 4 12 9 8 5 -3 12 -1 16 5 3 5 0 10 -7 10 -8 0 -7 6 5 17 13 13 19 14 29 5 9
-9 8 -12 -7 -13 -11 0 -15 -3 -8 -5 18 -8 -26 -54 -51 -55 -12 0 -15 -3 -9 -6
8 -3 -34 -53 -105 -126 -194 -202 -474 -473 -371 -360 20 22 21 25 5 19 -17
-6 -17 -4 -5 11 33 45 67 76 99 94 51 27 92 67 84 81 -4 6 -3 8 4 4 12 -7 54
32 47 44 -2 4 11 22 30 40 19 19 35 30 35 24 0 -5 5 -1 11 9 6 10 8 21 6 24
-6 5 -11 2 -73 -51 -49 -43 -54 -44 -54 -11 0 13 -7 46 -16 72 -18 52 -98 191
-121 210 -12 9 -12 16 -2 34 10 20 7 19 -27 -8 -21 -17 -48 -41 -59 -53 -11
-12 -28 -26 -37 -31 -17 -9 -18 13 -18 421 0 401 1 431 18 437 9 4 76 43 147
87 147 90 545 326 771 456 83 48 177 106 207 129 132 97 386 231 440 231 9 0
45 -13 80 -28 92 -42 406 -219 449 -253 44 -35 52 -36 65 -6 6 12 58 73 116
136 l106 115 -20 24 c-10 14 -28 55 -39 93 -16 52 -28 74 -53 93 -37 28 -285
178 -397 240 -41 23 -115 69 -165 103 -134 90 -121 86 -194 46z m39 -3 c-13
-11 -26 -18 -28 -15 -6 6 28 34 42 35 5 0 -1 -9 -14 -20z m-100 -64 c0 -2 -7
-6 -15 -10 -8 -3 -15 -1 -15 4 0 6 7 10 15 10 8 0 15 -2 15 -4z m-165 -97 c-3
-8 -23 -24 -45 -36 -40 -24 -76 -31 -65 -13 3 5 13 6 23 3 9 -3 14 -3 10 2 -4
4 12 20 35 35 45 29 50 30 42 9z m-296 -180 c-7 -4 -17 -5 -22 -2 -5 3 -3 9 4
14 7 4 17 5 22 2 5 -3 3 -9 -4 -14z m571 -39 c0 -3 -19 -17 -42 -30 l-43 -24
28 30 c26 28 57 41 57 24z m-820 -94 c0 -3 -4 -8 -10 -11 -5 -3 -10 -1 -10 4
0 6 5 11 10 11 6 0 10 -2 10 -4z m-60 -41 c0 -8 -7 -15 -16 -15 -14 0 -14 3
-4 15 7 8 14 15 16 15 2 0 4 -7 4 -15z m-77 -40 c-3 -9 -8 -14 -10 -11 -3 3
-2 9 2 15 9 16 15 13 8 -4z m2178 -498 c-10 -9 -11 -8 -5 6 3 10 9 15 12 12 3
-3 0 -11 -7 -18z m-201 -212 c-7 -9 -15 -13 -19 -10 -3 3 1 10 9 15 21 14 24
12 10 -5z m-2610 -49 c0 -2 -7 -7 -16 -10 -8 -3 -12 -2 -9 4 6 10 25 14 25 6z
m2460 -96 c-6 -11 -13 -20 -16 -20 -2 0 0 9 6 20 6 11 13 20 16 20 2 0 0 -9
-6 -20z m-163 -178 c-15 -14 -27 -21 -27 -15 0 15 41 55 49 48 3 -3 -7 -18
-22 -33z m-82 -91 c-3 -6 -11 -11 -16 -11 -5 0 -4 6 3 14 14 16 24 13 13 -3z
m-235 -246 c-7 -9 -15 -13 -19 -10 -3 3 1 10 9 15 21 14 24 12 10 -5z m-1060
-44 c0 -13 -41 -63 -47 -57 -3 3 5 18 18 35 26 33 29 35 29 22z m470 -146 c11
-13 10 -14 -4 -9 -9 3 -16 10 -16 15 0 13 6 11 20 -6z m-610 -28 c0 -2 -14
-16 -32 -33 l-31 -29 22 33 c18 26 41 42 41 29z m-93 -90 c0 -7 -9 -14 -19
-14 -16 -2 -17 1 -8 13 15 18 27 18 27 1z m-747 -991 c0 -3 -26 -17 -57 -31
-168 -78 -188 -90 -187 -111 1 -16 -3 -20 -18 -16 -53 14 -21 40 133 107 135
59 129 57 129 51z m3070 -101 c0 -2 -22 -16 -50 -30 -27 -14 -50 -23 -50 -20
0 2 21 16 48 29 53 28 52 28 52 21z m-180 -100 c0 -2 -10 -9 -22 -15 -22 -11
-22 -10 -4 4 21 17 26 19 26 11z m-105 -65 c-3 -5 -16 -15 -28 -21 -19 -9 -19
-8 3 10 28 23 34 26 25 11z m-55 -35 c0 -2 -10 -9 -22 -15 -22 -11 -22 -10 -4
4 21 17 26 19 26 11z m-1122 -433 c19 -15 33 -17 70 -11 26 4 48 6 49 5 1 -1
-13 -12 -32 -24 l-33 -24 -54 36 c-29 20 -46 36 -38 36 8 0 26 -9 38 -18z"/>
<path d="M5980 8120 c-9 -6 -10 -10 -3 -10 6 0 15 5 18 10 8 12 4 12 -15 0z"/>
<path d="M5995 8078 c9 -28 63 -110 106 -160 l32 -37 -25 -39 c-14 -21 -44
-60 -67 -86 -73 -84 -42 -64 52 35 51 53 105 105 120 114 l28 18 -47 23 c-26
12 -70 45 -98 72 -28 26 -64 56 -79 66 -29 18 -29 18 -22 -6z"/>
<path d="M4904 7646 c-72 -37 -125 -86 -159 -147 -26 -47 -30 -64 -30 -134 0
-142 59 -246 170 -301 44 -21 69 -26 127 -26 127 0 201 48 277 179 43 75 51
96 51 139 0 48 -34 184 -46 184 -25 0 -103 -57 -169 -124 -94 -96 -145 -152
-145 -160 0 -11 51 -6 79 8 33 18 101 98 101 120 0 9 7 16 15 16 8 0 15 5 15
12 0 8 3 9 10 2 20 -20 14 -92 -11 -141 -28 -55 -105 -113 -149 -113 -66 0
-142 57 -196 147 -25 42 -25 44 -10 91 33 99 92 152 168 152 18 0 43 -7 55
-15 19 -13 21 -20 13 -43 -9 -25 -8 -24 18 8 15 19 46 53 70 75 23 22 42 46
42 51 0 21 -56 36 -150 41 -88 4 -99 3 -146 -21z"/>
<path d="M4995 7420 c-3 -5 -1 -10 4 -10 6 0 11 5 11 10 0 6 -2 10 -4 10 -3 0
-8 -4 -11 -10z"/>
<path d="M6264 6969 c-50 -25 -72 -131 -36 -175 18 -24 72 -54 95 -54 47 0
113 100 103 156 -13 66 -97 104 -162 73z"/>
<path d="M4414 6101 c-46 -28 -74 -69 -74 -109 0 -51 63 -112 117 -112 48 0
75 18 97 65 32 67 3 138 -67 164 -37 14 -37 14 -73 -8z"/>
<path d="M5760 5390 c0 -5 5 -10 10 -10 6 0 10 5 10 10 0 6 -4 10 -10 10 -5 0
-10 -4 -10 -10z"/>
</g>
</svg>
